<?xml version="1.0" standalone="no"?><!DOCTYPE svg PUBLIC "-//W3C//DTD SVG 1.1//EN" "http://www.w3.org/Graphics/SVG/1.1/DTD/svg11.dtd"><svg t="1534209463786" class="icon" style="" viewBox="0 0 1024 1024" version="1.1" xmlns="http://www.w3.org/2000/svg" p-id="34042" xmlns:xlink="http://www.w3.org/1999/xlink" width="200" height="200"><defs><style type="text/css"></style></defs><path d="M115.461 373.639c3.877-4.582 12.168-13.27 24.815-24.716 21.411-19.487 46.94-39.034 76.346-57.289 83.982-52.246 182.037-83.532 293.455-83.532 111.421 0 209.478 31.286 293.519 83.532 29.405 18.255 54.876 37.802 76.286 57.289 12.646 11.505 20.938 20.193 24.815 24.716 10.557 12.442 29.343 14.143 41.989 3.753 12.645-10.39 14.375-28.877 3.817-41.323-5.43-6.459-15.568-17.023-30.18-30.288-23.977-21.779-52.31-43.558-84.937-63.81-93.046-57.82-201.902-92.57-325.31-92.57-123.403 0-232.258 34.75-325.304 92.57-32.628 20.252-60.96 41.973-84.937 63.81-14.612 13.264-24.75 23.829-30.18 30.288-10.557 12.446-8.828 30.933 3.819 41.323 12.639 10.389 31.429 8.688 41.987-3.753" fill="#8A8A8A" p-id="34043"></path><path d="M331.14 501.601c0 97.267 80.106 176.102 178.936 176.102 98.835 0 178.94-78.835 178.94-176.102 0-97.263-80.105-176.095-178.94-176.095-98.83-0.002-178.936 78.832-178.936 176.095m298.23 0c0 64.868-53.383 117.404-119.294 117.404-65.906 0-119.29-52.536-119.29-117.404 0-64.861 53.384-117.398 119.29-117.398 65.91 0 119.294 52.536 119.294 117.398" fill="#8A8A8A" p-id="34044"></path><path d="M904.696 634.498c-3.877 4.58-12.169 13.267-24.815 24.712-21.41 19.49-46.939 39.035-76.286 57.293-84.041 52.241-182.038 83.527-293.52 83.527-111.417 0-209.472-31.286-293.454-83.527-29.406-18.26-54.935-37.802-76.346-57.293-12.647-11.446-20.938-20.134-24.815-24.712-10.557-12.444-29.347-14.146-41.988-3.758-12.646 10.391-14.376 28.882-3.817 41.33 5.487 6.453 15.567 17.021 30.18 30.286 23.976 21.78 52.309 43.554 84.936 63.806 93.046 57.82 201.901 92.569 325.305 92.569 123.408 0 232.264-34.748 325.37-92.57 32.567-20.25 60.9-41.967 84.936-63.805 14.611-13.265 24.692-23.833 30.179-30.286 10.557-12.448 8.829-30.938-3.817-41.33-12.705-10.388-31.491-8.686-42.048 3.758" fill="#8A8A8A" p-id="34045"></path></svg>