<?xml version="1.0" standalone="no"?><!DOCTYPE svg PUBLIC "-//W3C//DTD SVG 1.1//EN" "http://www.w3.org/Graphics/SVG/1.1/DTD/svg11.dtd"><svg t="1534321197117" class="icon" style="" viewBox="0 0 1150 1024" version="1.1" xmlns="http://www.w3.org/2000/svg" p-id="4443" xmlns:xlink="http://www.w3.org/1999/xlink" width="224.609375" height="200"><defs><style type="text/css"></style></defs><path d="M1044.596142 981.320908c-0.005461-199.071137-123.959201-369.175774-298.887264-437.391834 77.492931-53.956029 128.220145-143.677501 128.220145-245.261626 0-164.949454-133.718005-298.667459-298.667459-298.667459S276.595469 133.716629 276.595469 298.666083c0 101.584125 50.728579 191.306963 128.22151 245.261626C229.883455 612.1465 105.929715 782.256598 105.92835 981.333196l0 0 0 0 0 0 0 0c0 23.564208 19.102572 42.66678 42.66678 42.66678L1001.929362 1023.999975c23.564208 0 42.66678-19.102572 42.66678-42.66678C1044.596142 981.3291 1044.596142 981.325004 1044.596142 981.320908zM361.929029 298.666083c0-117.821039 95.512861-213.333899 213.333899-213.333899 117.821039 0 213.333899 95.512861 213.333899 213.333899s-95.512861 213.333899-213.333899 213.333899C457.441889 511.999982 361.929029 416.487122 361.929029 298.666083zM203.771691 883.799766c43.161-164.8416 193.115918-286.466224 371.489872-286.466224 178.421737 0 328.409421 121.692887 371.524003 286.601383l-0.039592-0.053245-0.004096 0.001365c1.139983 3.848639 1.762537 7.921178 1.762537 12.139799 0 23.280236-18.647944 42.191673-41.81896 42.644936L244.655455 938.667781c-23.562842-0.001365-42.664049-19.103937-42.664049-42.66678C201.992771 891.759171 202.619421 887.666152 203.771691 883.799766z" p-id="4444" fill="#999999"></path></svg>