<?xml version="1.0" standalone="no"?><!DOCTYPE svg PUBLIC "-//W3C//DTD SVG 1.1//EN" "http://www.w3.org/Graphics/SVG/1.1/DTD/svg11.dtd"><svg t="1534320177935" class="icon" style="" viewBox="0 0 1024 1024" version="1.1" xmlns="http://www.w3.org/2000/svg" p-id="2733" xmlns:xlink="http://www.w3.org/1999/xlink" width="200" height="200"><defs><style type="text/css"></style></defs><path d="M453.485714 899.657143C204.8 899.657143 0 702.171429 0 453.485714 0 204.8 204.8 0 453.485714 0c248.685714 0 453.485714 204.8 453.485715 446.171429 0 256-204.8 453.485714-453.485715 453.485714z m0-746.057143c-160.914286 0-299.885714 131.657143-299.885714 292.571429s131.657143 292.571429 299.885714 292.571428c160.914286 0 299.885714-131.657143 299.885715-292.571428s-131.657143-292.571429-299.885715-292.571429z" p-id="2734" fill="#bfbfbf"></path><path d="M650.971429 833.828571c-36.571429-36.571429-36.571429-95.085714 0-131.657142s95.085714-36.571429 131.657142 0l168.228572 160.914285c36.571429 36.571429 36.571429 95.085714 0 131.657143s-95.085714 36.571429-131.657143 0l-168.228571-160.914286z" p-id="2735" fill="#bfbfbf"></path></svg>