<?xml version="1.0" standalone="no"?><!DOCTYPE svg PUBLIC "-//W3C//DTD SVG 1.1//EN" "http://www.w3.org/Graphics/SVG/1.1/DTD/svg11.dtd"><svg t="1534210057906" class="icon" style="" viewBox="0 0 1024 1024" version="1.1" xmlns="http://www.w3.org/2000/svg" p-id="55159" xmlns:xlink="http://www.w3.org/1999/xlink" width="200" height="200"><defs><style type="text/css"></style></defs><path d="M979.968 417.28C866.816 283.648 697.344 199.68 508.416 199.68c-188.416 0-358.4 83.968-471.552 217.6 0 0-32.768 29.184-32.768 85.504 0 37.888 32.768 85.504 32.768 85.504 113.152 133.632 282.624 217.6 471.552 217.6 188.416 0 358.4-83.968 471.552-217.6 0 0 39.424-48.128 39.424-82.432 1.536-46.08-39.424-88.576-39.424-88.576zM493.056 301.568s27.136-4.096 29.184 29.184c0 23.04-20.992 29.184-20.992 29.184-67.072 8.192-115.712 71.68-104.96 138.752 0 0-2.048 29.184-27.136 31.744-23.04 2.048-31.744-25.088-31.744-25.088C324.608 406.528 394.24 314.368 493.056 301.568z m15.36 408.576c-171.52 0-324.096-82.432-419.84-208.896 69.12-91.648 167.936-159.744 281.6-190.464-46.592 39.424-75.776 98.816-75.776 164.352 0 119.808 97.792 217.6 217.6 217.6s217.6-97.792 217.6-217.6c0-64.512-28.16-122.368-72.704-161.792 109.568 32.256 204.288 99.328 271.36 187.904-95.744 126.464-248.32 208.896-419.84 208.896z" fill="#1296db" p-id="55160"></path></svg>