<?xml version="1.0" standalone="no"?><!DOCTYPE svg PUBLIC "-//W3C//DTD SVG 1.1//EN" "http://www.w3.org/Graphics/SVG/1.1/DTD/svg11.dtd"><svg t="1534209092645" class="icon" style="" viewBox="0 0 1024 1024" version="1.1" xmlns="http://www.w3.org/2000/svg" p-id="18322" xmlns:xlink="http://www.w3.org/1999/xlink" width="200" height="200"><defs><style type="text/css"></style></defs><path d="M59.52 364.16c-14.08 0-25.6-11.52-25.6-25.6V192c0-102.4 83.84-185.6 187.52-185.6h581.12c103.68 0 187.52 83.2 187.52 185.6v145.92c0 14.08-11.52 25.6-25.6 25.6s-25.6-11.52-25.6-25.6V192c0-74.24-61.44-134.4-136.32-134.4H221.44c-75.52 0-136.32 60.16-136.32 134.4v147.2c0 14.08-11.52 24.96-25.6 24.96zM384.64 1017.6c-8.96 0-18.56-1.92-26.88-5.76-21.12-10.24-34.56-31.36-34.56-53.76v-83.84H221.44c-103.68 0-187.52-83.2-187.52-185.6V455.04c0-14.08 11.52-25.6 25.6-25.6s25.6 11.52 25.6 25.6v232.96c0 74.24 61.44 134.4 136.32 134.4h152.96v135.04c0 3.2 1.92 6.4 5.12 7.68 3.2 1.92 8.32 1.28 11.52-1.28l193.92-142.08h217.6c75.52 0 136.32-60.16 136.32-134.4V452.48c0-14.08 11.52-25.6 25.6-25.6s25.6 11.52 25.6 25.6v236.16c0 102.4-84.48 185.6-187.52 185.6H601.6l-180.48 131.84c-10.24 7.04-23.04 11.52-36.48 11.52z" p-id="18323" fill="#666666"></path><path d="M512 570.88c-53.76 0-89.6-40.96-102.4-64.64-6.4-12.8-1.92-28.16 10.88-34.56s28.16-1.92 34.56 10.88c7.04 12.8 27.52 37.76 56.96 37.76 29.44 0 50.56-24.96 57.6-37.76 7.04-12.16 22.4-17.28 34.56-10.24 12.16 7.04 17.28 22.4 10.24 34.56-12.8 23.04-49.28 64-102.4 64zM364.8 390.4c-14.08 0-25.6-11.52-25.6-25.6v-38.4c0-14.08 11.52-25.6 25.6-25.6s25.6 11.52 25.6 25.6v38.4c0 14.08-11.52 25.6-25.6 25.6zM646.4 390.4c-14.08 0-25.6-11.52-25.6-25.6v-38.4c0-14.08 11.52-25.6 25.6-25.6s25.6 11.52 25.6 25.6v38.4c0 14.08-11.52 25.6-25.6 25.6z" p-id="18324" fill="#666666"></path></svg>