<?xml version="1.0" standalone="no"?><!DOCTYPE svg PUBLIC "-//W3C//DTD SVG 1.1//EN" "http://www.w3.org/Graphics/SVG/1.1/DTD/svg11.dtd"><svg t="1534209195884" class="icon" style="" viewBox="0 0 1024 1024" version="1.1" xmlns="http://www.w3.org/2000/svg" p-id="20375" xmlns:xlink="http://www.w3.org/1999/xlink" width="200" height="200"><defs><style type="text/css"></style></defs><path d="M760.448 274.816C760.448 140.864 651.584 32 517.632 32 383.68 32 274.816 140.864 274.816 274.816 274.816 408.768 383.68 517.632 517.632 517.632 651.584 517.632 760.448 408.768 760.448 274.816ZM338.816 274.816C338.816 176.256 419.072 96 517.632 96 616.256 96 696.448 176.256 696.448 274.816 696.448 373.44 616.256 453.632 517.632 453.632 419.072 453.632 338.816 373.44 338.816 274.816ZM64 907.264 64 992 971.264 992 971.264 960 971.264 907.264C971.264 701.12 781.888 559.04 517.632 559.04 253.376 559.04 64 701.12 64 907.264ZM907.264 907.264 906.816 928.128 128 930.688 128 907.264C128 741.12 285.376 623.04 517.632 623.04 749.888 623.04 907.264 741.12 907.264 907.264Z" p-id="20376"></path></svg>